<svg fill="#af0d16 " viewBox="0 0 32.00 32.00" id="icon" xmlns="http://www.w3.org/2000/svg"><g id="SVGRepo_bgCarrier" stroke-width="0"></g><g id="SVGRepo_tracerCarrier" stroke-linecap="round" stroke-linejoin="round" stroke="#CCCCCC" stroke-width="0.064"></g><g id="SVGRepo_iconCarrier"><defs><style>.cls-1{fill:none;}</style></defs><title>event-schedule</title><path d="M21,30a8,8,0,1,1,8-8A8,8,0,0,1,21,30Zm0-14a6,6,0,1,0,6,6A6,6,0,0,0,21,16Z"></path><polygon points="22.59 25 20 22.41 20 18 22 18 22 21.59 24 23.59 22.59 25"></polygon><path d="M28,6a2,2,0,0,0-2-2H22V2H20V4H12V2H10V4H6A2,2,0,0,0,4,6V26a2,2,0,0,0,2,2h4V26H6V6h4V8h2V6h8V8h2V6h4v6h2Z"></path><rect id="_Transparent_Rectangle_" data-name="&lt;Transparent Rectangle&gt;" class="cls-1" width="32" height="32"></rect></g></svg>